<svg xmlns="http://www.w3.org/2000/svg" width="21.8" height="21.8" viewBox="0 0 21.8 21.8">
    <path id="prefix__Support" d="M4.965 5.035L4.328 4.4l-.636.636.636.636zM8.429 8.5l.643.63.628-.636-.63-.63zM5.035 4.965l.636-.636-.636-.636-.635.635zM8.5 8.429l-.636.636.63.63.636-.624zm7 0l-.63.643.636.624.63-.63zm3.465-3.465l.636-.636-.636-.636-.637.636zm.071.071l.636.636.636-.636-.636-.635zM15.571 8.5l-.636-.636-.63.63.624.636zm0 7l-.643-.63-.624.636.63.63zm3.465 3.465l.636.636.636-.636-.636-.636zm-.071.071l-.636.636.636.636.636-.636zM15.5 15.571l.636-.636-.63-.63-.636.624zm-7 0l.63-.643-.636-.628-.63.63zm-3.465 3.464l-.636.636.636.636.636-.636zm-.071-.071l-.636-.636-.636.637.636.636zM8.429 15.5l.636.636.63-.63-.624-.636zM12 22.9A10.9 10.9 0 0 0 22.9 12h-1.8a9.1 9.1 0 0 1-9.1 9.1zM1.1 12A10.9 10.9 0 0 0 12 22.9v-1.8A9.1 9.1 0 0 1 2.9 12zM12 1.1A10.9 10.9 0 0 0 1.1 12h1.8A9.1 9.1 0 0 1 12 2.9zM22.9 12A10.9 10.9 0 0 0 12 1.1v1.8a9.1 9.1 0 0 1 9.1 9.1zM4.328 5.672l3.465 3.464 1.273-1.272L5.6 4.4zM4.4 4.328l-.072.072L5.6 5.672l.072-.072zm4.736 3.465L5.672 4.328 4.4 5.6l3.464 3.466zM9.13 9.072A4.084 4.084 0 0 1 12 7.9V6.1a5.884 5.884 0 0 0-4.13 1.687zM12 7.9a4.084 4.084 0 0 1 2.87 1.172l1.26-1.285A5.884 5.884 0 0 0 12 6.1zm6.328-3.572l-3.464 3.465 1.273 1.273L19.6 5.6zm1.344.071l-.072-.071L18.328 5.6l.071.071zm-3.465 4.737l3.465-3.465L18.4 4.4l-3.466 3.464zm-1.279-.006A4.084 4.084 0 0 1 16.1 12h1.8a5.884 5.884 0 0 0-1.687-4.13zM16.1 12a4.084 4.084 0 0 1-1.172 2.87l1.285 1.26A5.883 5.883 0 0 0 17.9 12zm3.572 6.328l-3.465-3.465-1.273 1.273L18.4 19.6zm-.072 1.344l.071-.071-1.271-1.273-.071.071zm-4.737-3.465l3.465 3.465L19.6 18.4l-3.465-3.465zm.006-1.279A4.084 4.084 0 0 1 12 16.1v1.8a5.883 5.883 0 0 0 4.13-1.687zM12 16.1a4.084 4.084 0 0 1-2.87-1.172l-1.26 1.285A5.884 5.884 0 0 0 12 17.9zm-6.328 3.572l3.465-3.465-1.273-1.273L4.4 18.4zM4.328 19.6l.071.071L5.672 18.4l-.072-.072zm3.465-4.737l-3.465 3.465L5.6 19.6l3.465-3.465zm1.279.006A4.084 4.084 0 0 1 7.9 12H6.1a5.884 5.884 0 0 0 1.687 4.13zM7.9 12a4.084 4.084 0 0 1 1.172-2.87L7.787 7.87A5.884 5.884 0 0 0 6.1 12z" transform="translate(-1.1 -1.1)" style="fill:#b4e6a1"/>
</svg>
