<svg xmlns="http://www.w3.org/2000/svg" width="18.117" height="18.136" viewBox="0 0 18.117 18.136"><g transform="translate(-4 -3.96)"><path d="M13.059,5.635c2.416,0,2.7,0,3.664.056a5.082,5.082,0,0,1,1.686.3,2.893,2.893,0,0,1,1.034.674,2.706,2.706,0,0,1,.674,1.045,5.345,5.345,0,0,1,.315,1.69c.045.944.056,1.236.056,3.653s0,2.7-.056,3.653a5.314,5.314,0,0,1-.315,1.686,2.585,2.585,0,0,1-.674,1.012,2.634,2.634,0,0,1-1.045.7,5.01,5.01,0,0,1-1.663.3c-.955.034-1.236.045-3.664.045s-2.7,0-3.664-.056a5.314,5.314,0,0,1-1.686-.315,2.973,2.973,0,0,1-1.708-1.72A5.662,5.662,0,0,1,5.7,16.672c-.045-.955-.056-1.236-.056-3.653s0-2.7.056-3.664a5.032,5.032,0,0,1,.315-1.686,2.666,2.666,0,0,1,.674-1.034,2.472,2.472,0,0,1,1.045-.674A4.734,4.734,0,0,1,9.42,5.646c.955-.045,1.236-.056,3.664-.056m0-1.63c-2.473,0-2.765,0-3.731.056a6.664,6.664,0,0,0-2.2.416A4.355,4.355,0,0,0,5.54,5.477,4.5,4.5,0,0,0,4.5,7.084a6.59,6.59,0,0,0-.416,2.192C4,10.3,4,10.591,4,13.052s0,2.754.056,3.709a6.6,6.6,0,0,0,.416,2.2,4.219,4.219,0,0,0,1.045,1.618,4.5,4.5,0,0,0,1.607,1.045,6.6,6.6,0,0,0,2.2.416c.967.045,1.27.056,3.731.056s2.765-.022,3.731-.067a6.664,6.664,0,0,0,2.2-.416A4.355,4.355,0,0,0,20.6,20.572a4.5,4.5,0,0,0,1.045-1.607,6.456,6.456,0,0,0,.416-2.18c.045-.967.056-1.27.056-3.709s0-2.776-.056-3.743a6.59,6.59,0,0,0-.416-2.192A4.355,4.355,0,0,0,20.6,5.533a4.5,4.5,0,0,0-1.607-1.045,6.6,6.6,0,0,0-2.2-.416C15.824,4,15.52,4,13.059,4m0,4.406a4.642,4.642,0,1,0,4.653,4.642A4.642,4.642,0,0,0,13.059,8.406Zm-3,4.681a3.007,3.007,0,1,1,0,.011ZM18.982,8.22a1.073,1.073,0,1,1,0-.011" fill="#9c6af9" fill-rule="evenodd"/></g></svg>