<svg xmlns="http://www.w3.org/2000/svg" width="18.03" height="18" viewBox="0 0 18.03 18">
    <path id="prefix__linkedin" d="M18.37 18.34H15.7v-4.18c0-1-.02-2.28-1.4-2.28-1.4 0-1.6 1.1-1.6 2.2v4.26h-2.67v-8.6h2.56v1.18h.03a2.809 2.809 0 0 1 2.53-1.38c2.7 0 3.2 1.77 3.2 4.1zM7 8.57a1.56 1.56 0 1 1 .02 0zm-1.33 9.77h2.68v-8.6H5.67zM19.7 3H4.33A1.317 1.317 0 0 0 3 4.3v15.4A1.317 1.317 0 0 0 4.33 21H19.7a1.317 1.317 0 0 0 1.33-1.3V4.3A1.317 1.317 0 0 0 19.7 3z" transform="translate(-3 -3)" style="fill:#9c6af9;fill-rule:evenodd"/>
</svg>
