<svg xmlns="http://www.w3.org/2000/svg" width="20.1" height="16.301" viewBox="0 0 20.1 16.301">
    <path id="prefix__twitter" d="M8.32 20.3A11.639 11.639 0 0 0 20.05 8.6v-.54a8.424 8.424 0 0 0 2.04-2.13 8.254 8.254 0 0 1-2.37.64 4.029 4.029 0 0 0 1.8-2.27 8.247 8.247 0 0 1-2.6 1 4.13 4.13 0 0 0-7.03 3.75 11.739 11.739 0 0 1-8.5-4.3 4.114 4.114 0 0 0 1.27 5.5 4.231 4.231 0 0 1-1.87-.52v.05a4.142 4.142 0 0 0 3.3 4.04 4.273 4.273 0 0 1-1.85.07 4.152 4.152 0 0 0 3.85 2.84 8.263 8.263 0 0 1-5.12 1.77 6.437 6.437 0 0 1-.98-.05 11.727 11.727 0 0 0 6.32 1.84" transform="translate(-1.99 -3.999)" style="fill:#9c6af9;fill-rule:evenodd"/>
</svg>
